<svg xmlns="http://www.w3.org/2000/svg" viewBox="0 0 1200 800" font-family="'Segoe UI',system-ui,sans-serif">
    <defs>
      <linearGradient id="bgng" x1="0" y1="0" x2="1" y2="1"><stop offset="0" stop-color="#052e16"/><stop offset="1" stop-color="#02160d"/></linearGradient>
      <radialGradient id="glowng" cx="0.5" cy="0.3" r="0.85"><stop offset="0" stop-color="#22c55e" stop-opacity="0.5"/><stop offset="1" stop-color="#22c55e" stop-opacity="0"/></radialGradient>
      <filter id="softng"><feGaussianBlur stdDeviation="34"/></filter>
    </defs>
    <rect width="1200" height="800" fill="url(#bgng)"/>
    <circle cx="980" cy="130" r="230" fill="#22c55e" opacity="0.22" filter="url(#softng)"/>
    <circle cx="200" cy="720" r="210" fill="#02160d" opacity="0.30" filter="url(#softng)"/>
    <rect width="1200" height="800" fill="url(#glowng)"/>
    <g>
      <rect x="150" y="150" width="900" height="520" rx="16" fill="#0b1020" stroke="rgba(255,255,255,.14)" stroke-width="1.5"/>
      <rect x="150" y="150" width="900" height="34" rx="16" fill="#e9edf5"/>
      <rect x="150" y="168" width="900" height="16" fill="#e9edf5"/>
      <circle cx="170" cy="167" r="5" fill="#ff5f57"/>
      <circle cx="188" cy="167" r="5" fill="#febc2e"/>
      <circle cx="206" cy="167" r="5" fill="#28c840"/>
      <rect x="230" y="159" width="740" height="16" rx="8" fill="#ffffff"/>
      <clipPath id="clipng"><rect x="151" y="184" width="898" height="485"/></clipPath>
      <g clip-path="url(#clipng)">
  <rect x="150" y="184" width="900" height="486" fill="#04140c"/>
  <rect x="150" y="184" width="900" height="486" fill="url(#nghero)"/>
  <defs><radialGradient id="nghero" cx="0.7" cy="0.1" r="0.9"><stop offset="0" stop-color="#065f46" stop-opacity=".6"/><stop offset="1" stop-color="#04140c" stop-opacity="0"/></radialGradient></defs>
  <!-- nav -->
  <text x="174" y="215" fill="#fff" font-size="16" font-weight="800">774<tspan fill="#22c55e">ng</tspan></text>
  <text x="300" y="214" fill="rgba(255,255,255,.6)" font-size="12">Platform</text>
  <text x="380" y="214" fill="rgba(255,255,255,.6)" font-size="12">LGAs</text>
  <text x="450" y="214" fill="rgba(255,255,255,.6)" font-size="12">Projects</text>
  <rect x="946" y="197" width="80" height="26" rx="13" fill="#22c55e"/><text x="986" y="213.66666666666666" fill="#04140c" font-size="11" font-weight="700" text-anchor="middle">Get Started</text>
  <!-- hero -->
  <rect x="190" y="262" width="220" height="24" rx="12" fill="rgba(34,197,94,.14)"/><text x="300" y="277.3333333333333" fill="#4ade80" font-size="10" font-weight="700" text-anchor="middle">● GROWING LGAS ACROSS NIGERIA</text>
  <text x="190" y="324" fill="#fff" font-size="34" font-weight="800">Where Nigeria's</text>
  <text x="190" y="362" fill="#22c55e" font-size="34" font-weight="800">LGAs Meet the World</text>
  <text x="190" y="390" fill="rgba(255,255,255,.6)" font-size="13">Transforming local government areas — investment, transparency &amp; citizens</text>
  <rect x="190" y="408" width="150" height="34" rx="17" fill="#22c55e"/><text x="265" y="429.3333333333333" fill="#04140c" font-size="13" font-weight="700" text-anchor="middle">Explore LGAs</text>
  <rect x="350" y="408" width="150" height="34" rx="17" fill="rgba(255,255,255,.08)"/><text x="425" y="429.3333333333333" fill="#fff" font-size="13" font-weight="700" text-anchor="middle">List Your LGA</text>
  <!-- dashboard card top right -->
  <rect x="800" y="254" width="220" height="120" rx="12" fill="#0a2318" stroke="rgba(34,197,94,.25)"/>
  <rect x="816" y="270" width="120" height="10" rx="5" fill="#22c55e"/>
  <rect x="816" y="288" width="180" height="7" rx="3.5" fill="rgba(255,255,255,.15)"/>
  <rect x="816" y="302" width="160" height="7" rx="3.5" fill="rgba(255,255,255,.12)"/>
  <rect x="816" y="324" width="60" height="34" rx="8" fill="rgba(34,197,94,.15)"/><text x="846" y="346" fill="#4ade80" font-size="16" font-weight="800" text-anchor="middle">774</text>
  <rect x="884" y="324" width="60" height="34" rx="8" fill="rgba(34,197,94,.15)"/><text x="914" y="346" fill="#4ade80" font-size="16" font-weight="800" text-anchor="middle">36</text>
  <rect x="952" y="324" width="64" height="34" rx="8" fill="rgba(34,197,94,.15)"/><text x="984" y="346" fill="#4ade80" font-size="16" font-weight="800" text-anchor="middle">740+</text>
  <!-- registered LGA cards -->
  
    <rect x="174" y="460" width="273.3333333333333" height="170" rx="12" fill="#0a2318" stroke="rgba(34,197,94,.18)"/>
    <rect x="188" y="476" width="40" height="40" rx="10" fill="rgba(34,197,94,.16)"/>
    <rect x="238" y="484" width="183.33333333333331" height="10" rx="5" fill="rgba(255,255,255,.7)"/>
    <rect x="238" y="502" width="143.33333333333331" height="8" rx="4" fill="#22c55e"/>
    <rect x="188" y="532" width="245.33333333333331" height="7" rx="3.5" fill="rgba(255,255,255,.12)"/>
    <rect x="188" y="548" width="213.33333333333331" height="7" rx="3.5" fill="rgba(255,255,255,.10)"/>
    <rect x="188" y="576" width="245.33333333333331" height="30" rx="15" fill="rgba(34,197,94,.14)"/><text x="310.66666666666663" y="595" fill="#4ade80" font-size="12" font-weight="700" text-anchor="middle">View Profile</text>
    <rect x="463.3333333333333" y="460" width="273.3333333333333" height="170" rx="12" fill="#0a2318" stroke="rgba(34,197,94,.18)"/>
    <rect x="477.3333333333333" y="476" width="40" height="40" rx="10" fill="rgba(34,197,94,.16)"/>
    <rect x="527.3333333333333" y="484" width="183.33333333333331" height="10" rx="5" fill="rgba(255,255,255,.7)"/>
    <rect x="527.3333333333333" y="502" width="143.33333333333331" height="8" rx="4" fill="#22c55e"/>
    <rect x="477.3333333333333" y="532" width="245.33333333333331" height="7" rx="3.5" fill="rgba(255,255,255,.12)"/>
    <rect x="477.3333333333333" y="548" width="213.33333333333331" height="7" rx="3.5" fill="rgba(255,255,255,.10)"/>
    <rect x="477.3333333333333" y="576" width="245.33333333333331" height="30" rx="15" fill="rgba(34,197,94,.14)"/><text x="600" y="595" fill="#4ade80" font-size="12" font-weight="700" text-anchor="middle">View Profile</text>
    <rect x="752.6666666666666" y="460" width="273.3333333333333" height="170" rx="12" fill="#0a2318" stroke="rgba(34,197,94,.18)"/>
    <rect x="766.6666666666666" y="476" width="40" height="40" rx="10" fill="rgba(34,197,94,.16)"/>
    <rect x="816.6666666666666" y="484" width="183.33333333333331" height="10" rx="5" fill="rgba(255,255,255,.7)"/>
    <rect x="816.6666666666666" y="502" width="143.33333333333331" height="8" rx="4" fill="#22c55e"/>
    <rect x="766.6666666666666" y="532" width="245.33333333333331" height="7" rx="3.5" fill="rgba(255,255,255,.12)"/>
    <rect x="766.6666666666666" y="548" width="213.33333333333331" height="7" rx="3.5" fill="rgba(255,255,255,.10)"/>
    <rect x="766.6666666666666" y="576" width="245.33333333333331" height="30" rx="15" fill="rgba(34,197,94,.14)"/><text x="889.3333333333333" y="595" fill="#4ade80" font-size="12" font-weight="700" text-anchor="middle">View Profile</text></g>
    </g><text x="90" y="90" fill="#fff" font-size="42" font-weight="800">774<tspan fill="#22c55e">ng</tspan></text><text x="92" y="122" fill="rgba(255,255,255,.72)" font-size="18" font-weight="500">LGA Investment &amp; Governance Platform</text><g><rect x="150" y="700" width="100" height="30" rx="15" fill="rgba(255,255,255,.12)" stroke="rgba(255,255,255,.18)"/><text x="200" y="720" fill="#fff" font-size="14" font-weight="600" text-anchor="middle" opacity=".92">Next.js</text></g><g><rect x="262" y="700" width="80" height="30" rx="15" fill="rgba(255,255,255,.12)" stroke="rgba(255,255,255,.18)"/><text x="302" y="720" fill="#fff" font-size="14" font-weight="600" text-anchor="middle" opacity=".92">React</text></g><g><rect x="354" y="700" width="120" height="30" rx="15" fill="rgba(255,255,255,.12)" stroke="rgba(255,255,255,.18)"/><text x="414" y="720" fill="#fff" font-size="14" font-weight="600" text-anchor="middle" opacity=".92">TypeScript</text></g><g><rect x="486" y="700" width="100" height="30" rx="15" fill="rgba(255,255,255,.12)" stroke="rgba(255,255,255,.18)"/><text x="536" y="720" fill="#fff" font-size="14" font-weight="600" text-anchor="middle" opacity=".92">Node.js</text></g></svg>