<svg xmlns="http://www.w3.org/2000/svg" viewBox="0 0 1200 800" font-family="'Segoe UI',system-ui,sans-serif">
    <defs>
      <linearGradient id="bgng" x1="0" y1="0" x2="1" y2="1">
        <stop offset="0" stop-color="#06101f"/>
        <stop offset="1" stop-color="#0a1a2e"/>
      </linearGradient>
      <radialGradient id="glowng" cx="0.5" cy="0.35" r="0.8">
        <stop offset="0" stop-color="#38bdf8" stop-opacity="0.55"/>
        <stop offset="1" stop-color="#38bdf8" stop-opacity="0"/>
      </radialGradient>
      <filter id="softng"><feGaussianBlur stdDeviation="30"/></filter>
    </defs>
    <rect width="1200" height="800" fill="url(#bgng)"/>
    <circle cx="960" cy="140" r="220" fill="#38bdf8" opacity="0.25" filter="url(#softng)"/>
    <circle cx="220" cy="700" r="200" fill="#0a1a2e" opacity="0.30" filter="url(#softng)"/>
    <rect width="1200" height="800" fill="url(#glowng)"/>
    <g>
      <rect x="150" y="150" width="900" height="520" rx="16" fill="#0b1020" stroke="rgba(255,255,255,.14)" stroke-width="1.5"/>
      <rect x="150" y="150" width="900" height="34" rx="16" fill="#141a2e"/>
      <rect x="150" y="168" width="900" height="16" fill="#141a2e"/>
      <circle cx="170" cy="167" r="5" fill="#ff5f57"/>
      <circle cx="188" cy="167" r="5" fill="#febc2e"/>
      <circle cx="206" cy="167" r="5" fill="#28c840"/>
      <rect x="230" y="159" width="740" height="16" rx="8" fill="rgba(255,255,255,.08)"/>
      <clipPath id="clip150150"><rect x="151" y="184" width="898" height="485" rx="0"/></clipPath>
      <g clip-path="url(#clip150150)">
  <rect x="150" y="184" width="900" height="486" fill="#071426"/>
  <rect x="174" y="206" width="140" height="18" rx="6" fill="#38bdf8"/>
  <rect x="930" y="202" width="96" height="26" rx="13" fill="#22d3ee"/>
  <rect x="174" y="248" width="852" height="90" rx="14" fill="#0f2138"/>
  <text x="194" y="292" fill="#fff" font-size="24" font-weight="800">Post a free ad in seconds</text>
  <text x="194" y="318" fill="rgba(255,255,255,.5)" font-size="13">Buy, sell &amp; connect across all 774 LGAs in Nigeria</text>
  
    <rect x="174" y="356" width="201" height="150" rx="12" fill="#0f2138"/>
    <rect x="174" y="356" width="201" height="80" rx="12" fill="url(#ngimg0)"/>
    <rect x="186" y="446" width="161" height="12" rx="6" fill="rgba(255,255,255,.7)"/>
    <rect x="186" y="466" width="131" height="10" rx="5" fill="#38bdf8"/>
    <text x="186" y="496" fill="#22d3ee" font-size="13" font-weight="800">₦15k</text>
    <rect x="391" y="356" width="201" height="150" rx="12" fill="#0f2138"/>
    <rect x="391" y="356" width="201" height="80" rx="12" fill="url(#ngimg1)"/>
    <rect x="403" y="446" width="161" height="12" rx="6" fill="rgba(255,255,255,.7)"/>
    <rect x="403" y="466" width="131" height="10" rx="5" fill="#38bdf8"/>
    <text x="403" y="496" fill="#22d3ee" font-size="13" font-weight="800">₦30k</text>
    <rect x="608" y="356" width="201" height="150" rx="12" fill="#0f2138"/>
    <rect x="608" y="356" width="201" height="80" rx="12" fill="url(#ngimg2)"/>
    <rect x="620" y="446" width="161" height="12" rx="6" fill="rgba(255,255,255,.7)"/>
    <rect x="620" y="466" width="131" height="10" rx="5" fill="#38bdf8"/>
    <text x="620" y="496" fill="#22d3ee" font-size="13" font-weight="800">₦45k</text>
    <rect x="825" y="356" width="201" height="150" rx="12" fill="#0f2138"/>
    <rect x="825" y="356" width="201" height="80" rx="12" fill="url(#ngimg3)"/>
    <rect x="837" y="446" width="161" height="12" rx="6" fill="rgba(255,255,255,.7)"/>
    <rect x="837" y="466" width="131" height="10" rx="5" fill="#38bdf8"/>
    <text x="837" y="496" fill="#22d3ee" font-size="13" font-weight="800">₦60k</text>
  <defs><linearGradient id="ngimg0" x1="0" y1="0" x2="1" y2="1"><stop offset="0" stop-color="#2563eb"/><stop offset="1" stop-color="#22d3ee"/></linearGradient><linearGradient id="ngimg1" x1="0" y1="0" x2="1" y2="1"><stop offset="0" stop-color="#0ea5e9"/><stop offset="1" stop-color="#38bdf8"/></linearGradient><linearGradient id="ngimg2" x1="0" y1="0" x2="1" y2="1"><stop offset="0" stop-color="#06b6d4"/><stop offset="1" stop-color="#818cf8"/></linearGradient><linearGradient id="ngimg3" x1="0" y1="0" x2="1" y2="1"><stop offset="0" stop-color="#3b82f6"/><stop offset="1" stop-color="#22d3ee"/></linearGradient></defs></g>
    </g><text x="90" y="90" fill="#fff" font-size="42" font-weight="800">774<tspan fill="#38bdf8">ng</tspan></text><text x="92" y="122" fill="rgba(255,255,255,.7)" font-size="18" font-weight="500">Nationwide Classified Ads Marketplace</text><g><rect x="150" y="700" width="100" height="30" rx="15" fill="rgba(255,255,255,.12)" stroke="rgba(255,255,255,.18)"/><text x="200" y="720" fill="#fff" font-size="14" font-weight="600" text-anchor="middle" opacity=".92">Next.js</text></g><g><rect x="262" y="700" width="80" height="30" rx="15" fill="rgba(255,255,255,.12)" stroke="rgba(255,255,255,.18)"/><text x="302" y="720" fill="#fff" font-size="14" font-weight="600" text-anchor="middle" opacity=".92">React</text></g><g><rect x="354" y="700" width="120" height="30" rx="15" fill="rgba(255,255,255,.12)" stroke="rgba(255,255,255,.18)"/><text x="414" y="720" fill="#fff" font-size="14" font-weight="600" text-anchor="middle" opacity=".92">TypeScript</text></g><g><rect x="486" y="700" width="100" height="30" rx="15" fill="rgba(255,255,255,.12)" stroke="rgba(255,255,255,.18)"/><text x="536" y="720" fill="#fff" font-size="14" font-weight="600" text-anchor="middle" opacity=".92">Node.js</text></g></svg>