<svg xmlns="http://www.w3.org/2000/svg" viewBox="0 0 1200 800" font-family="'Segoe UI',system-ui,sans-serif">
    <defs>
      <linearGradient id="bgeu" x1="0" y1="0" x2="1" y2="1"><stop offset="0" stop-color="#064e3b"/><stop offset="1" stop-color="#0f2f2a"/></linearGradient>
      <radialGradient id="gloweu" cx="0.5" cy="0.3" r="0.85"><stop offset="0" stop-color="#10b981" stop-opacity="0.5"/><stop offset="1" stop-color="#10b981" stop-opacity="0"/></radialGradient>
      <filter id="softeu"><feGaussianBlur stdDeviation="34"/></filter>
    </defs>
    <rect width="1200" height="800" fill="url(#bgeu)"/>
    <circle cx="980" cy="130" r="230" fill="#10b981" opacity="0.22" filter="url(#softeu)"/>
    <circle cx="200" cy="720" r="210" fill="#0f2f2a" opacity="0.30" filter="url(#softeu)"/>
    <rect width="1200" height="800" fill="url(#gloweu)"/>
    <g>
      <rect x="150" y="150" width="900" height="520" rx="16" fill="#0b1020" stroke="rgba(255,255,255,.14)" stroke-width="1.5"/>
      <rect x="150" y="150" width="900" height="34" rx="16" fill="#e9edf5"/>
      <rect x="150" y="168" width="900" height="16" fill="#e9edf5"/>
      <circle cx="170" cy="167" r="5" fill="#ff5f57"/>
      <circle cx="188" cy="167" r="5" fill="#febc2e"/>
      <circle cx="206" cy="167" r="5" fill="#28c840"/>
      <rect x="230" y="159" width="740" height="16" rx="8" fill="#ffffff"/>
      <clipPath id="clipeu"><rect x="151" y="184" width="898" height="485"/></clipPath>
      <g clip-path="url(#clipeu)">
  <defs><linearGradient id="euhero" x1="0" y1="0" x2="1" y2="1"><stop offset="0" stop-color="#10b981"/><stop offset="1" stop-color="#14b8a6"/></linearGradient></defs>
  <rect x="150" y="184" width="900" height="486" fill="#ffffff"/>
  <!-- navbar -->
  <circle cx="180" cy="210" r="9" fill="#10b981"/>
  <text x="196" y="215" fill="#0f172a" font-size="14" font-weight="800">eunixma<tspan fill="#10b981">.com.ng</tspan></text>
  <rect x="350" y="199" width="240" height="22" rx="11" fill="#f1f5f9" stroke="#e2e8f0"/>
  <text x="840" y="215" fill="#475569" font-size="12" font-weight="600">News</text>
  <rect x="890" y="198" width="66" height="24" rx="12" fill="#7c3aed"/><text x="923" y="214" fill="#fff" font-size="12" font-weight="700" text-anchor="middle">Post Ad</text>
  <text x="972" y="215" fill="#475569" font-size="12" font-weight="600">Login</text>
  <!-- hero -->
  <rect x="150" y="236" width="900" height="434" fill="url(#euhero)"/>
  <text x="600" y="296" fill="#fff" font-size="30" font-weight="800" text-anchor="middle">Discover Amazing Deals</text>
  <text x="600" y="330" fill="#fff" font-size="30" font-weight="800" text-anchor="middle">Across Nigeria</text>
  <text x="600" y="358" fill="rgba(255,255,255,.9)" font-size="13" text-anchor="middle">Your trusted marketplace for buying &amp; selling everything</text>
  <!-- search card -->
  <rect x="240" y="380" width="720" height="86" rx="14" fill="#ffffff" stroke="#e2e8f0"/>
  <text x="600" y="404" fill="#0f172a" font-size="14" font-weight="800" text-anchor="middle">Find Your Perfect Match</text>
  <rect x="260" y="418" width="340" height="30" rx="8" fill="#f1f5f9"/>
  <rect x="610" y="418" width="190.4" height="30" rx="8" fill="#f1f5f9"/>
  <rect x="810.4" y="418" width="136" height="30" rx="15" fill="#2563eb"/><text x="878.4" y="437.3333333333333" fill="#fff" font-size="13" font-weight="700" text-anchor="middle">Search</text>
  <!-- cta -->
  <rect x="450" y="482" width="140" height="34" rx="17" fill="#059669"/><text x="520" y="503.3333333333333" fill="#fff" font-size="13" font-weight="700" text-anchor="middle">+ Post Your Ad</text>
  <rect x="610" y="482" width="150" height="34" rx="17" fill="rgba(255,255,255,.18)"/><text x="685" y="503.3333333333333" fill="#fff" font-size="13" font-weight="700" text-anchor="middle">Browse Categories</text></g>
    </g><text x="90" y="90" fill="#fff" font-size="42" font-weight="800">Eunixma</text><text x="92" y="122" fill="rgba(255,255,255,.72)" font-size="18" font-weight="500">Classified Ads &amp; E-Commerce Marketplace</text><g><rect x="150" y="700" width="100" height="30" rx="15" fill="rgba(255,255,255,.12)" stroke="rgba(255,255,255,.18)"/><text x="200" y="720" fill="#fff" font-size="14" font-weight="600" text-anchor="middle" opacity=".92">Laravel</text></g><g><rect x="262" y="700" width="80" height="30" rx="15" fill="rgba(255,255,255,.12)" stroke="rgba(255,255,255,.18)"/><text x="302" y="720" fill="#fff" font-size="14" font-weight="600" text-anchor="middle" opacity=".92">React</text></g><g><rect x="354" y="700" width="90" height="30" rx="15" fill="rgba(255,255,255,.12)" stroke="rgba(255,255,255,.18)"/><text x="399" y="720" fill="#fff" font-size="14" font-weight="600" text-anchor="middle" opacity=".92">MySQL</text></g><g><rect x="456" y="700" width="110" height="30" rx="15" fill="rgba(255,255,255,.12)" stroke="rgba(255,255,255,.18)"/><text x="511" y="720" fill="#fff" font-size="14" font-weight="600" text-anchor="middle" opacity=".92">REST API</text></g></svg>