<svg xmlns="http://www.w3.org/2000/svg" viewBox="0 0 1200 800" font-family="'Segoe UI',system-ui,sans-serif">
    <defs>
      <linearGradient id="bgft" x1="0" y1="0" x2="1" y2="1">
        <stop offset="0" stop-color="#07160f"/>
        <stop offset="1" stop-color="#0b2016"/>
      </linearGradient>
      <radialGradient id="glowft" cx="0.5" cy="0.35" r="0.8">
        <stop offset="0" stop-color="#34d399" stop-opacity="0.55"/>
        <stop offset="1" stop-color="#34d399" stop-opacity="0"/>
      </radialGradient>
      <filter id="softft"><feGaussianBlur stdDeviation="30"/></filter>
    </defs>
    <rect width="1200" height="800" fill="url(#bgft)"/>
    <circle cx="960" cy="140" r="220" fill="#34d399" opacity="0.25" filter="url(#softft)"/>
    <circle cx="220" cy="700" r="200" fill="#0b2016" opacity="0.30" filter="url(#softft)"/>
    <rect width="1200" height="800" fill="url(#glowft)"/>
    <g>
      <rect x="450" y="150" width="300" height="560" rx="38" fill="#0b1020" stroke="rgba(255,255,255,.18)" stroke-width="2"/>
      <rect x="457" y="157" width="286" height="546" rx="30" fill="#0e1428"/>
      <rect x="566" y="166" width="68" height="16" rx="8" fill="#05070f"/>
      <clipPath id="pclip600150"><rect x="457" y="157" width="286" height="546" rx="30"/></clipPath>
      <g clip-path="url(#pclip600150)">
  <rect x="457" y="157" width="286" height="546" fill="#08140f"/>
  <text x="479" y="211" fill="#fff" font-size="18" font-weight="800">Hi, Kennedy 👋</text>
  <text x="479" y="235" fill="rgba(255,255,255,.5)" font-size="12">Let's crush today's goal</text>
  <g transform="translate(600,337)">
    <circle r="72" fill="none" stroke="rgba(255,255,255,.08)" stroke-width="14"/>
    <circle r="72" fill="none" stroke="#a3e635" stroke-width="14" stroke-linecap="round" stroke-dasharray="340 452" transform="rotate(-90)"/>
    <circle r="52" fill="none" stroke="rgba(255,255,255,.08)" stroke-width="12"/>
    <circle r="52" fill="none" stroke="#34d399" stroke-width="12" stroke-linecap="round" stroke-dasharray="230 327" transform="rotate(-90)"/>
    <text y="-2" fill="#fff" font-size="30" font-weight="800" text-anchor="middle">78%</text>
    <text y="20" fill="rgba(255,255,255,.55)" font-size="12" text-anchor="middle">daily goal</text>
  </g>
  <rect x="475" y="437" width="119" height="70" rx="14" fill="#10241b"/>
  <text x="491" y="469" fill="#a3e635" font-size="20" font-weight="800">8,240</text>
  <text x="491" y="491" fill="rgba(255,255,255,.5)" font-size="11">steps</text>
  <rect x="606" y="437" width="119" height="70" rx="14" fill="#10241b"/>
  <text x="622" y="469" fill="#34d399" font-size="20" font-weight="800">612</text>
  <text x="622" y="491" fill="rgba(255,255,255,.5)" font-size="11">kcal burned</text>
  <rect x="475" y="525" width="250" height="54" rx="14" fill="#10241b"/>
  <circle cx="503" cy="552" r="16" fill="#a3e635"/><text x="503" y="558" font-size="16" text-anchor="middle">🔥</text>
  <text x="529" y="547" fill="#fff" font-size="13" font-weight="700">12 day streak</text>
  <text x="529" y="567" fill="rgba(255,255,255,.5)" font-size="11">+250 reward points</text></g>
    </g><text x="90" y="90" fill="#fff" font-size="42" font-weight="800">Fitztar</text><text x="92" y="122" fill="rgba(255,255,255,.7)" font-size="18" font-weight="500">Fitness &amp; Wellness Mobile App</text><g><rect x="150" y="720" width="130" height="30" rx="15" fill="rgba(255,255,255,.12)" stroke="rgba(255,255,255,.18)"/><text x="215" y="740" fill="#fff" font-size="14" font-weight="600" text-anchor="middle" opacity=".92">React Native</text></g><g><rect x="292" y="720" width="100" height="30" rx="15" fill="rgba(255,255,255,.12)" stroke="rgba(255,255,255,.18)"/><text x="342" y="740" fill="#fff" font-size="14" font-weight="600" text-anchor="middle" opacity=".92">Node.js</text></g><g><rect x="404" y="720" width="70" height="30" rx="15" fill="rgba(255,255,255,.12)" stroke="rgba(255,255,255,.18)"/><text x="439" y="740" fill="#fff" font-size="14" font-weight="600" text-anchor="middle" opacity=".92">AWS</text></g><g><rect x="486" y="720" width="140" height="30" rx="15" fill="rgba(255,255,255,.12)" stroke="rgba(255,255,255,.18)"/><text x="556" y="740" fill="#fff" font-size="14" font-weight="600" text-anchor="middle" opacity=".92">iOS + Android</text></g></svg>