<svg xmlns="http://www.w3.org/2000/svg" viewBox="0 0 1200 800" font-family="'Segoe UI',system-ui,sans-serif">
    <defs>
      <linearGradient id="bgft" x1="0" y1="0" x2="1" y2="1"><stop offset="0" stop-color="#0b2818"/><stop offset="1" stop-color="#04120b"/></linearGradient>
      <radialGradient id="glowft" cx="0.5" cy="0.3" r="0.85"><stop offset="0" stop-color="#22c55e" stop-opacity="0.5"/><stop offset="1" stop-color="#22c55e" stop-opacity="0"/></radialGradient>
      <filter id="softft"><feGaussianBlur stdDeviation="34"/></filter>
    </defs>
    <rect width="1200" height="800" fill="url(#bgft)"/>
    <circle cx="980" cy="130" r="230" fill="#22c55e" opacity="0.22" filter="url(#softft)"/>
    <circle cx="200" cy="720" r="210" fill="#04120b" opacity="0.30" filter="url(#softft)"/>
    <rect width="1200" height="800" fill="url(#glowft)"/>
    <g>
      <rect x="150" y="150" width="900" height="520" rx="16" fill="#0b1020" stroke="rgba(255,255,255,.14)" stroke-width="1.5"/>
      <rect x="150" y="150" width="900" height="34" rx="16" fill="#e9edf5"/>
      <rect x="150" y="168" width="900" height="16" fill="#e9edf5"/>
      <circle cx="170" cy="167" r="5" fill="#ff5f57"/>
      <circle cx="188" cy="167" r="5" fill="#febc2e"/>
      <circle cx="206" cy="167" r="5" fill="#28c840"/>
      <rect x="230" y="159" width="740" height="16" rx="8" fill="#ffffff"/>
      <clipPath id="clipft"><rect x="151" y="184" width="898" height="485"/></clipPath>
      <g clip-path="url(#clipft)">
  <rect x="150" y="184" width="900" height="486" fill="#07130d"/>
  <rect x="150" y="184" width="900" height="486" fill="url(#fthero)"/>
  <defs><radialGradient id="fthero" cx="0.75" cy="0.2" r="0.9"><stop offset="0" stop-color="#14532d" stop-opacity=".7"/><stop offset="1" stop-color="#07130d" stop-opacity="0"/></radialGradient></defs>
  <!-- nav -->
  <text x="174" y="215" fill="#fff" font-size="15" font-weight="800" letter-spacing="1">FITZTAR</text>
  <text x="310" y="214" fill="rgba(255,255,255,.6)" font-size="12">About</text>
  <text x="374" y="214" fill="rgba(255,255,255,.6)" font-size="12">Our Story</text>
  <text x="456" y="214" fill="rgba(255,255,255,.6)" font-size="12">FAQs</text>
  <rect x="934" y="197" width="92" height="26" rx="13" fill="#22c55e"/><text x="980" y="213.66666666666666" fill="#07130d" font-size="11" font-weight="700" text-anchor="middle">Get the App</text>
  <!-- hero copy -->
  <text x="190" y="308" fill="#fff" font-size="34" font-weight="800">Your All-in-One</text>
  <text x="190" y="346" fill="#fff" font-size="34" font-weight="800">Fitness &amp; <tspan fill="#4ade80">Rewards</tspan></text>
  <text x="190" y="384" fill="#fff" font-size="34" font-weight="800">Companion.</text>
  <text x="190" y="414" fill="rgba(255,255,255,.6)" font-size="13">Track workouts, earn rewards, join challenges — feel better every day.</text>
  <!-- store badges -->
  <rect x="190" y="434" width="140" height="40" rx="20" fill="#000000"/><text x="260" y="458" fill="#fff" font-size="12" font-weight="700" text-anchor="middle"></text>
  <text x="208" y="450" fill="#fff" font-size="8"></text><text x="260" y="451" fill="#fff" font-size="9" text-anchor="middle">Download on the</text><text x="260" y="466" fill="#fff" font-size="12" font-weight="700" text-anchor="middle">App Store</text>
  <rect x="342" y="434" width="150" height="40" rx="20" fill="#000000"/><text x="417" y="458" fill="#fff" font-size="12" font-weight="700" text-anchor="middle"></text>
  <text x="417" y="451" fill="#fff" font-size="9" text-anchor="middle">GET IT ON</text><text x="417" y="466" fill="#fff" font-size="12" font-weight="700" text-anchor="middle">Google Play</text>
  <!-- athlete/rings widget right -->
  <circle cx="860" cy="384" r="120" fill="rgba(34,197,94,.06)"/>
  <g transform="translate(860,384)">
    <circle r="86" fill="none" stroke="rgba(255,255,255,.06)" stroke-width="16"/>
    <circle r="86" fill="none" stroke="#22c55e" stroke-width="16" stroke-linecap="round" stroke-dasharray="410 540" transform="rotate(-90)"/>
    <circle r="62" fill="none" stroke="rgba(255,255,255,.06)" stroke-width="14"/>
    <circle r="62" fill="none" stroke="#a3e635" stroke-width="14" stroke-linecap="round" stroke-dasharray="270 390" transform="rotate(-90)"/>
    <text y="-4" fill="#fff" font-size="34" font-weight="800" text-anchor="middle">78%</text>
    <text y="20" fill="rgba(255,255,255,.6)" font-size="12" text-anchor="middle">daily goal</text>
  </g>
  <rect x="782" y="520" width="112" height="56" rx="12" fill="#0e2318"/><text x="798" y="546" fill="#4ade80" font-size="17" font-weight="800">8,240</text><text x="798" y="566" fill="rgba(255,255,255,.5)" font-size="10">steps today</text>
  <rect x="904" y="520" width="112" height="56" rx="12" fill="#0e2318"/><text x="920" y="546" fill="#a3e635" font-size="17" font-weight="800">🔥 12</text><text x="920" y="566" fill="rgba(255,255,255,.5)" font-size="10">day streak</text></g>
    </g><text x="90" y="90" fill="#fff" font-size="42" font-weight="800" letter-spacing="1">FITZTAR</text><text x="92" y="122" fill="rgba(255,255,255,.72)" font-size="18" font-weight="500">Fitness &amp; Rewards — Marketing Website</text><g><rect x="150" y="700" width="100" height="30" rx="15" fill="rgba(255,255,255,.12)" stroke="rgba(255,255,255,.18)"/><text x="200" y="720" fill="#fff" font-size="14" font-weight="600" text-anchor="middle" opacity=".92">Next.js</text></g><g><rect x="262" y="700" width="80" height="30" rx="15" fill="rgba(255,255,255,.12)" stroke="rgba(255,255,255,.18)"/><text x="302" y="720" fill="#fff" font-size="14" font-weight="600" text-anchor="middle" opacity=".92">React</text></g><g><rect x="354" y="700" width="120" height="30" rx="15" fill="rgba(255,255,255,.12)" stroke="rgba(255,255,255,.18)"/><text x="414" y="720" fill="#fff" font-size="14" font-weight="600" text-anchor="middle" opacity=".92">TypeScript</text></g><g><rect x="486" y="700" width="100" height="30" rx="15" fill="rgba(255,255,255,.12)" stroke="rgba(255,255,255,.18)"/><text x="536" y="720" fill="#fff" font-size="14" font-weight="600" text-anchor="middle" opacity=".92">Tailwind</text></g></svg>