<svg xmlns="http://www.w3.org/2000/svg" viewBox="0 0 1200 800" font-family="'Segoe UI',system-ui,sans-serif">
    <defs>
      <linearGradient id="bgfw" x1="0" y1="0" x2="1" y2="1">
        <stop offset="0" stop-color="#07160f"/>
        <stop offset="1" stop-color="#0b2016"/>
      </linearGradient>
      <radialGradient id="glowfw" cx="0.5" cy="0.35" r="0.8">
        <stop offset="0" stop-color="#a3e635" stop-opacity="0.55"/>
        <stop offset="1" stop-color="#a3e635" stop-opacity="0"/>
      </radialGradient>
      <filter id="softfw"><feGaussianBlur stdDeviation="30"/></filter>
    </defs>
    <rect width="1200" height="800" fill="url(#bgfw)"/>
    <circle cx="960" cy="140" r="220" fill="#a3e635" opacity="0.25" filter="url(#softfw)"/>
    <circle cx="220" cy="700" r="200" fill="#0b2016" opacity="0.30" filter="url(#softfw)"/>
    <rect width="1200" height="800" fill="url(#glowfw)"/>
    <g>
      <rect x="150" y="150" width="900" height="520" rx="16" fill="#0b1020" stroke="rgba(255,255,255,.14)" stroke-width="1.5"/>
      <rect x="150" y="150" width="900" height="34" rx="16" fill="#141a2e"/>
      <rect x="150" y="168" width="900" height="16" fill="#141a2e"/>
      <circle cx="170" cy="167" r="5" fill="#ff5f57"/>
      <circle cx="188" cy="167" r="5" fill="#febc2e"/>
      <circle cx="206" cy="167" r="5" fill="#28c840"/>
      <rect x="230" y="159" width="740" height="16" rx="8" fill="rgba(255,255,255,.08)"/>
      <clipPath id="clip150150"><rect x="151" y="184" width="898" height="485" rx="0"/></clipPath>
      <g clip-path="url(#clip150150)">
  <rect x="150" y="184" width="900" height="486" fill="#08140f"/>
  <rect x="174" y="206" width="120" height="18" rx="6" fill="#a3e635"/>
  <rect x="790" y="208" width="60" height="14" rx="7" fill="rgba(255,255,255,.25)"/>
  <rect x="860" y="208" width="60" height="14" rx="7" fill="rgba(255,255,255,.25)"/>
  <rect x="940" y="202" width="86" height="26" rx="13" fill="#34d399"/>
  <text x="190" y="304" fill="#fff" font-size="40" font-weight="800">Move more.</text>
  <text x="190" y="352" fill="#a3e635" font-size="40" font-weight="800">Feel better.</text>
  <rect x="190" y="380" width="360" height="14" rx="7" fill="rgba(255,255,255,.3)"/>
  <rect x="190" y="404" width="280" height="14" rx="7" fill="rgba(255,255,255,.2)"/>
  <rect x="190" y="440" width="150" height="40" rx="20" fill="#a3e635"/>
  <rect x="354" y="440" width="150" height="40" rx="20" fill="rgba(255,255,255,.1)" stroke="rgba(255,255,255,.25)"/>
  
    <g>
      <rect x="805" y="224" width="190" height="360" rx="38" fill="#0b1020" stroke="rgba(255,255,255,.18)" stroke-width="2"/>
      <rect x="812" y="231" width="176" height="346" rx="30" fill="#0e1428"/>
      <rect x="866" y="240" width="68" height="16" rx="8" fill="#05070f"/>
      <clipPath id="pclip900224"><rect x="812" y="231" width="176" height="346" rx="30"/></clipPath>
      <g clip-path="url(#pclip900224)">
  <rect x="812" y="231" width="176" height="346" fill="#08140f"/>
  <text x="834" y="285" fill="#fff" font-size="18" font-weight="800">Hi, Kennedy 👋</text>
  <text x="834" y="309" fill="rgba(255,255,255,.5)" font-size="12">Let's crush today's goal</text>
  <g transform="translate(900,411)">
    <circle r="72" fill="none" stroke="rgba(255,255,255,.08)" stroke-width="14"/>
    <circle r="72" fill="none" stroke="#a3e635" stroke-width="14" stroke-linecap="round" stroke-dasharray="340 452" transform="rotate(-90)"/>
    <circle r="52" fill="none" stroke="rgba(255,255,255,.08)" stroke-width="12"/>
    <circle r="52" fill="none" stroke="#34d399" stroke-width="12" stroke-linecap="round" stroke-dasharray="230 327" transform="rotate(-90)"/>
    <text y="-2" fill="#fff" font-size="30" font-weight="800" text-anchor="middle">78%</text>
    <text y="20" fill="rgba(255,255,255,.55)" font-size="12" text-anchor="middle">daily goal</text>
  </g>
  <rect x="830" y="511" width="64" height="70" rx="14" fill="#10241b"/>
  <text x="846" y="543" fill="#a3e635" font-size="20" font-weight="800">8,240</text>
  <text x="846" y="565" fill="rgba(255,255,255,.5)" font-size="11">steps</text>
  <rect x="906" y="511" width="64" height="70" rx="14" fill="#10241b"/>
  <text x="922" y="543" fill="#34d399" font-size="20" font-weight="800">612</text>
  <text x="922" y="565" fill="rgba(255,255,255,.5)" font-size="11">kcal burned</text>
  <rect x="830" y="599" width="140" height="54" rx="14" fill="#10241b"/>
  <circle cx="858" cy="626" r="16" fill="#a3e635"/><text x="858" y="632" font-size="16" text-anchor="middle">🔥</text>
  <text x="884" y="621" fill="#fff" font-size="13" font-weight="700">12 day streak</text>
  <text x="884" y="641" fill="rgba(255,255,255,.5)" font-size="11">+250 reward points</text></g>
    </g></g>
    </g><text x="90" y="90" fill="#fff" font-size="42" font-weight="800">Fitztar<tspan fill="#a3e635">.com</tspan></text><text x="92" y="122" fill="rgba(255,255,255,.7)" font-size="18" font-weight="500">Marketing &amp; Onboarding Website</text><g><rect x="150" y="700" width="100" height="30" rx="15" fill="rgba(255,255,255,.12)" stroke="rgba(255,255,255,.18)"/><text x="200" y="720" fill="#fff" font-size="14" font-weight="600" text-anchor="middle" opacity=".92">Next.js</text></g><g><rect x="262" y="700" width="80" height="30" rx="15" fill="rgba(255,255,255,.12)" stroke="rgba(255,255,255,.18)"/><text x="302" y="720" fill="#fff" font-size="14" font-weight="600" text-anchor="middle" opacity=".92">React</text></g><g><rect x="354" y="700" width="120" height="30" rx="15" fill="rgba(255,255,255,.12)" stroke="rgba(255,255,255,.18)"/><text x="414" y="720" fill="#fff" font-size="14" font-weight="600" text-anchor="middle" opacity=".92">TypeScript</text></g><g><rect x="486" y="700" width="100" height="30" rx="15" fill="rgba(255,255,255,.12)" stroke="rgba(255,255,255,.18)"/><text x="536" y="720" fill="#fff" font-size="14" font-weight="600" text-anchor="middle" opacity=".92">Tailwind</text></g></svg>