<svg xmlns="http://www.w3.org/2000/svg" viewBox="0 0 1200 800" font-family="'Segoe UI',system-ui,sans-serif">
    <defs>
      <linearGradient id="bggf" x1="0" y1="0" x2="1" y2="1"><stop offset="0" stop-color="#2e1065"/><stop offset="1" stop-color="#1e1246"/></linearGradient>
      <radialGradient id="glowgf" cx="0.5" cy="0.3" r="0.85"><stop offset="0" stop-color="#8b5cf6" stop-opacity="0.5"/><stop offset="1" stop-color="#8b5cf6" stop-opacity="0"/></radialGradient>
      <filter id="softgf"><feGaussianBlur stdDeviation="34"/></filter>
    </defs>
    <rect width="1200" height="800" fill="url(#bggf)"/>
    <circle cx="980" cy="130" r="230" fill="#8b5cf6" opacity="0.22" filter="url(#softgf)"/>
    <circle cx="200" cy="720" r="210" fill="#1e1246" opacity="0.30" filter="url(#softgf)"/>
    <rect width="1200" height="800" fill="url(#glowgf)"/>
    <g>
      <rect x="150" y="150" width="900" height="520" rx="16" fill="#0b1020" stroke="rgba(255,255,255,.14)" stroke-width="1.5"/>
      <rect x="150" y="150" width="900" height="34" rx="16" fill="#e9edf5"/>
      <rect x="150" y="168" width="900" height="16" fill="#e9edf5"/>
      <circle cx="170" cy="167" r="5" fill="#ff5f57"/>
      <circle cx="188" cy="167" r="5" fill="#febc2e"/>
      <circle cx="206" cy="167" r="5" fill="#28c840"/>
      <rect x="230" y="159" width="740" height="16" rx="8" fill="#ffffff"/>
      <clipPath id="clipgf"><rect x="151" y="184" width="898" height="485"/></clipPath>
      <g clip-path="url(#clipgf)">
  <defs>
    <linearGradient id="gfphoto" x1="0" y1="0" x2="1" y2="1"><stop offset="0" stop-color="#4c1d95"/><stop offset="1" stop-color="#6d28d9"/></linearGradient>
    <linearGradient id="gfcard" x1="0" y1="0" x2="0" y2="1"><stop offset="0" stop-color="#a78bfa"/><stop offset="1" stop-color="#7c3aed"/></linearGradient>
  </defs>
  <rect x="150" y="184" width="900" height="486" fill="#ffffff"/>
  <!-- nav -->
  <text x="174" y="215" fill="#6d28d9" font-size="17" font-weight="800">GeeftMe</text>
  <text x="300" y="214" fill="#475569" font-size="12" font-weight="600">Fundraiser</text>
  <text x="386" y="214" fill="#475569" font-size="12" font-weight="600">Donate</text>
  <text x="450" y="214" fill="#475569" font-size="12" font-weight="600">About Us</text>
  <text x="900" y="214" fill="#475569" font-size="12" font-weight="600">Sign in</text>
  <rect x="958" y="197" width="68" height="26" rx="13" fill="#7c3aed"/><text x="992" y="214" fill="#fff" font-size="12" font-weight="700" text-anchor="middle">Signup</text>
  <!-- hero image band -->
  <rect x="150" y="236" width="900" height="200" fill="url(#gfphoto)"/>
  <circle cx="240" cy="334" r="34" fill="rgba(255,255,255,.10)"/><rect x="222" y="370" width="36" height="46" rx="6" fill="rgba(255,255,255,.10)"/><circle cx="370" cy="334" r="34" fill="rgba(255,255,255,.10)"/><rect x="352" y="370" width="36" height="46" rx="6" fill="rgba(255,255,255,.10)"/><circle cx="500" cy="334" r="34" fill="rgba(255,255,255,.10)"/><rect x="482" y="370" width="36" height="46" rx="6" fill="rgba(255,255,255,.10)"/><circle cx="630" cy="334" r="34" fill="rgba(255,255,255,.10)"/><rect x="612" y="370" width="36" height="46" rx="6" fill="rgba(255,255,255,.10)"/><circle cx="760" cy="334" r="34" fill="rgba(255,255,255,.10)"/><rect x="742" y="370" width="36" height="46" rx="6" fill="rgba(255,255,255,.10)"/><circle cx="890" cy="334" r="34" fill="rgba(255,255,255,.10)"/><rect x="872" y="370" width="36" height="46" rx="6" fill="rgba(255,255,255,.10)"/>
  <rect x="150" y="236" width="900" height="200" fill="rgba(76,29,149,.55)"/>
  <text x="190" y="304" fill="#fff" font-size="27" font-weight="800">Make Global Donations With</text>
  <text x="190" y="336" fill="#fff" font-size="27" font-weight="800">Trust &amp; Transparency</text>
  <rect x="190" y="360" width="120" height="34" rx="17" fill="#7c3aed"/><text x="250" y="381.3333333333333" fill="#fff" font-size="13" font-weight="700" text-anchor="middle">Donate Now</text>
  <rect x="320" y="360" width="150" height="34" rx="17" fill="rgba(255,255,255,.9)"/><text x="395" y="381.3333333333333" fill="#4c1d95" font-size="13" font-weight="700" text-anchor="middle">Start Fundraising</text>
  <!-- cause cards -->
  <text x="174" y="470" fill="#0f172a" font-size="15" font-weight="800">Support a Cause Today</text>
  
    <rect x="174" y="484" width="201" height="150" rx="12" fill="#f8fafc" stroke="#eef2f7"/>
    <rect x="174" y="484" width="201" height="64" rx="12" fill="url(#gfcard)" opacity="0.65"/>
    <rect x="186" y="558" width="161" height="10" rx="5" fill="#e2e8f0"/>
    <rect x="186" y="576" width="177" height="7" rx="3.5" fill="#ede9fe"/>
    <rect x="186" y="576" width="70.8" height="7" rx="3.5" fill="#7c3aed"/>
    <rect x="186" y="594" width="177" height="26" rx="13" fill="#7c3aed"/><text x="274.5" y="611" fill="#fff" font-size="12" font-weight="700" text-anchor="middle">Donate</text>
    <rect x="391" y="484" width="201" height="150" rx="12" fill="#f8fafc" stroke="#eef2f7"/>
    <rect x="391" y="484" width="201" height="64" rx="12" fill="url(#gfcard)" opacity="0.73"/>
    <rect x="403" y="558" width="161" height="10" rx="5" fill="#e2e8f0"/>
    <rect x="403" y="576" width="177" height="7" rx="3.5" fill="#ede9fe"/>
    <rect x="403" y="576" width="97.35000000000001" height="7" rx="3.5" fill="#7c3aed"/>
    <rect x="403" y="594" width="177" height="26" rx="13" fill="#7c3aed"/><text x="491.5" y="611" fill="#fff" font-size="12" font-weight="700" text-anchor="middle">Donate</text>
    <rect x="608" y="484" width="201" height="150" rx="12" fill="#f8fafc" stroke="#eef2f7"/>
    <rect x="608" y="484" width="201" height="64" rx="12" fill="url(#gfcard)" opacity="0.81"/>
    <rect x="620" y="558" width="161" height="10" rx="5" fill="#e2e8f0"/>
    <rect x="620" y="576" width="177" height="7" rx="3.5" fill="#ede9fe"/>
    <rect x="620" y="576" width="123.89999999999999" height="7" rx="3.5" fill="#7c3aed"/>
    <rect x="620" y="594" width="177" height="26" rx="13" fill="#7c3aed"/><text x="708.5" y="611" fill="#fff" font-size="12" font-weight="700" text-anchor="middle">Donate</text>
    <rect x="825" y="484" width="201" height="150" rx="12" fill="#f8fafc" stroke="#eef2f7"/>
    <rect x="825" y="484" width="201" height="64" rx="12" fill="url(#gfcard)" opacity="0.89"/>
    <rect x="837" y="558" width="161" height="10" rx="5" fill="#e2e8f0"/>
    <rect x="837" y="576" width="177" height="7" rx="3.5" fill="#ede9fe"/>
    <rect x="837" y="576" width="150.45" height="7" rx="3.5" fill="#7c3aed"/>
    <rect x="837" y="594" width="177" height="26" rx="13" fill="#7c3aed"/><text x="925.5" y="611" fill="#fff" font-size="12" font-weight="700" text-anchor="middle">Donate</text></g>
    </g><text x="90" y="90" fill="#fff" font-size="42" font-weight="800">GeeftMe</text><text x="92" y="122" fill="rgba(255,255,255,.72)" font-size="18" font-weight="500">Global Crowdfunding &amp; Fundraising Platform</text><g><rect x="150" y="700" width="90" height="30" rx="15" fill="rgba(255,255,255,.12)" stroke="rgba(255,255,255,.18)"/><text x="195" y="720" fill="#fff" font-size="14" font-weight="600" text-anchor="middle" opacity=".92">Django</text></g><g><rect x="252" y="700" width="90" height="30" rx="15" fill="rgba(255,255,255,.12)" stroke="rgba(255,255,255,.18)"/><text x="297" y="720" fill="#fff" font-size="14" font-weight="600" text-anchor="middle" opacity=".92">Celery</text></g><g><rect x="354" y="700" width="120" height="30" rx="15" fill="rgba(255,255,255,.12)" stroke="rgba(255,255,255,.18)"/><text x="414" y="720" fill="#fff" font-size="14" font-weight="600" text-anchor="middle" opacity=".92">PostgreSQL</text></g><g><rect x="486" y="700" width="110" height="30" rx="15" fill="rgba(255,255,255,.12)" stroke="rgba(255,255,255,.18)"/><text x="541" y="720" fill="#fff" font-size="14" font-weight="600" text-anchor="middle" opacity=".92">Paystack</text></g><g><rect x="608" y="700" width="80" height="30" rx="15" fill="rgba(255,255,255,.12)" stroke="rgba(255,255,255,.18)"/><text x="648" y="720" fill="#fff" font-size="14" font-weight="600" text-anchor="middle" opacity=".92">Redis</text></g></svg>