<svg xmlns="http://www.w3.org/2000/svg" viewBox="0 0 1200 800" font-family="'Segoe UI',system-ui,sans-serif">
    <defs>
      <linearGradient id="bggf" x1="0" y1="0" x2="1" y2="1">
        <stop offset="0" stop-color="#2a1120"/>
        <stop offset="1" stop-color="#3b1a10"/>
      </linearGradient>
      <radialGradient id="glowgf" cx="0.5" cy="0.35" r="0.8">
        <stop offset="0" stop-color="#fb7185" stop-opacity="0.55"/>
        <stop offset="1" stop-color="#fb7185" stop-opacity="0"/>
      </radialGradient>
      <filter id="softgf"><feGaussianBlur stdDeviation="30"/></filter>
    </defs>
    <rect width="1200" height="800" fill="url(#bggf)"/>
    <circle cx="960" cy="140" r="220" fill="#fb7185" opacity="0.25" filter="url(#softgf)"/>
    <circle cx="220" cy="700" r="200" fill="#3b1a10" opacity="0.30" filter="url(#softgf)"/>
    <rect width="1200" height="800" fill="url(#glowgf)"/>
    <g>
      <rect x="150" y="150" width="900" height="520" rx="16" fill="#0b1020" stroke="rgba(255,255,255,.14)" stroke-width="1.5"/>
      <rect x="150" y="150" width="900" height="34" rx="16" fill="#141a2e"/>
      <rect x="150" y="168" width="900" height="16" fill="#141a2e"/>
      <circle cx="170" cy="167" r="5" fill="#ff5f57"/>
      <circle cx="188" cy="167" r="5" fill="#febc2e"/>
      <circle cx="206" cy="167" r="5" fill="#28c840"/>
      <rect x="230" y="159" width="740" height="16" rx="8" fill="rgba(255,255,255,.08)"/>
      <clipPath id="clip150150"><rect x="151" y="184" width="898" height="485" rx="0"/></clipPath>
      <g clip-path="url(#clip150150)">
  <rect x="150" y="184" width="900" height="486" fill="#0d1424"/>
  <rect x="174" y="206" width="150" height="20" rx="6" fill="#fb7185"/>
  <circle cx="1010" cy="216" r="14" fill="rgba(255,255,255,.12)"/>
  <rect x="174" y="248" width="468" height="200" rx="14" fill="#141d33"/>
  <rect x="190" y="264" width="396" height="110" rx="10" fill="url(#giftgrad)"/>
  <text x="202" y="329" font-size="34">🎁</text>
  <rect x="190" y="388" width="180" height="14" rx="7" fill="rgba(255,255,255,.85)"/>
  <rect x="190" y="412" width="120" height="10" rx="5" fill="rgba(255,255,255,.4)"/>
  <rect x="654" y="248" width="324" height="200" rx="14" fill="#141d33"/>
  <text x="672" y="284" fill="#fff" font-size="15" font-weight="700">₦ Raised</text>
  <text x="672" y="324" fill="#fb7185" font-size="30" font-weight="800">₦4.2M</text>
  <rect x="672" y="344" width="270" height="10" rx="5" fill="rgba(255,255,255,.12)"/>
  <rect x="672" y="344" width="198" height="10" rx="5" fill="#fb923c"/>
  <rect x="672" y="374" width="120" height="34" rx="17" fill="#fb7185"/>
  <text x="732" y="396" fill="#fff" font-size="14" font-weight="700" text-anchor="middle">Donate</text>
  <defs><linearGradient id="giftgrad" x1="0" y1="0" x2="1" y2="1"><stop offset="0" stop-color="#fb7185"/><stop offset="1" stop-color="#f59e0b"/></linearGradient></defs></g>
    </g><text x="90" y="90" fill="#fff" font-size="42" font-weight="800">Geeftme</text><text x="92" y="122" fill="rgba(255,255,255,.7)" font-size="18" font-weight="500">Crowdfunding &amp; Fundraising Platform</text><g><rect x="150" y="700" width="90" height="30" rx="15" fill="rgba(255,255,255,.12)" stroke="rgba(255,255,255,.18)"/><text x="195" y="720" fill="#fff" font-size="14" font-weight="600" text-anchor="middle" opacity=".92">Django</text></g><g><rect x="252" y="700" width="90" height="30" rx="15" fill="rgba(255,255,255,.12)" stroke="rgba(255,255,255,.18)"/><text x="297" y="720" fill="#fff" font-size="14" font-weight="600" text-anchor="middle" opacity=".92">Celery</text></g><g><rect x="354" y="700" width="120" height="30" rx="15" fill="rgba(255,255,255,.12)" stroke="rgba(255,255,255,.18)"/><text x="414" y="720" fill="#fff" font-size="14" font-weight="600" text-anchor="middle" opacity=".92">PostgreSQL</text></g><g><rect x="486" y="700" width="110" height="30" rx="15" fill="rgba(255,255,255,.12)" stroke="rgba(255,255,255,.18)"/><text x="541" y="720" fill="#fff" font-size="14" font-weight="600" text-anchor="middle" opacity=".92">Paystack</text></g><g><rect x="608" y="700" width="80" height="30" rx="15" fill="rgba(255,255,255,.12)" stroke="rgba(255,255,255,.18)"/><text x="648" y="720" fill="#fff" font-size="14" font-weight="600" text-anchor="middle" opacity=".92">Redis</text></g></svg>